<svg xmlns="http://www.w3.org/2000/svg" viewBox="0 0 512 512">
  <path d="M289.416,234.624 L286.864,233.247" fill="none" stroke="#000" stroke-width="1"/>
  <path d="M154.101,161.574 L29.930,238.594" fill="none" stroke="#000" stroke-width="1"/>
  <path d="M152.086,317.335 L25.600,392.679" fill="none" stroke="#000" stroke-width="1"/>
  <path d="M25.600,392.679 L163.166,461.317" fill="none" stroke="#000" stroke-width="1"/>
  <path d="M163.166,461.317 L290.009,388.797" fill="none" stroke="#000" stroke-width="1"/>
  <path d="M29.930,238.594 L25.600,392.679" fill="none" stroke="#000" stroke-width="1"/>
  <path d="M358.505,349.119 L289.552,269.847" fill="none" stroke="#000" stroke-width="1"/>
  <path d="M486.400,193.939 L358.505,349.119" fill="none" stroke="#000" stroke-width="1"/>
  <path d="M486.400,193.939 L355.004,120.199" fill="none" stroke="#000" stroke-width="1"/>
  <path d="M355.004,120.199 L352.228,121.885" fill="none" stroke="#000" stroke-width="1"/>
  <path d="M289.551,269.587 L290.009,388.797" fill="none" stroke="#000" stroke-width="1"/>
  <path d="M289.552,269.847 L269.326,246.594" fill="none" stroke="#000" stroke-width="1"/>
  <path d="M173.142,171.854 L172.552,169.928 L172.004,167.989 L171.498,166.040 L171.035,164.080 L170.613,162.109 L170.235,160.130 L169.900,158.142 L169.607,156.146 L169.358,154.144 L169.152,152.134 L168.989,150.119 L168.871,148.093 L168.796,146.065 L168.766,144.036 L168.780,142.009 L168.837,139.992 L168.939,137.979 L169.083,135.971 L169.271,133.967 L169.502,131.970 L169.777,129.980 L170.093,127.996 L170.453,126.021 L170.855,124.054 L171.299,122.097 L171.786,120.150 L172.314,118.213 L172.884,116.288 L173.496,114.375 L174.149,112.475 L174.844,110.589 L175.580,108.716 L176.356,106.859 L177.174,105.017 L178.032,103.191 L178.931,101.382 L179.871,99.588 L180.853,97.811 L181.872,96.057 L182.930,94.325 L184.025,92.617 L185.155,90.937 L186.318,89.285 L187.516,87.661 L188.748,86.064 L190.013,84.495 L191.312,82.956 L192.642,81.445 L194.005,79.964 L195.399,78.513 L196.823,77.093 L198.279,75.704 L199.764,74.347 L201.278,73.022 L202.821,71.729 L204.393,70.470 L205.992,69.244 L207.619,68.053 L209.272,66.896 L210.952,65.775 L212.659,64.688 L214.395,63.635 L216.153,62.620 L217.931,61.645 L219.722,60.714 L221.530,59.822 L223.355,58.971 L225.196,58.160 L227.054,57.390 L228.926,56.661 L230.812,55.972 L232.713,55.325 L234.626,54.719 L236.552,54.155 L238.489,53.633 L240.437,53.152 L242.395,52.713 L244.363,52.317 L246.340,51.963 L248.325,51.652 L250.318,51.384 L252.317,51.158 L254.323,50.976 L256.334,50.837 L258.350,50.742 L260.370,50.691 L262.387,50.683 L264.402,50.720 L266.413,50.799 L268.420,50.922 L270.422,51.089 L272.418,51.298 L274.408,51.550 L276.392,51.845 L278.367,52.183 L280.335,52.563 L282.293,52.985 L284.242,53.450 L286.180,53.956 L288.107,54.504 L290.023,55.094 L291.926,55.725 L293.816,56.397 L295.692,57.110 L297.554,57.865 L299.401,58.660 L301.232,59.495 L303.046,60.372 L304.843,61.288 L306.627,62.247 L308.390,63.245 L310.128,64.279 L311.841,65.350 L313.529,66.457 L315.191,67.599 L316.827,68.776 L318.437,69.988 L320.019,71.235 L321.574,72.515 L323.101,73.828 L324.598,75.174 L326.067,76.552 L327.505,77.962 L328.914,79.404 L330.291,80.876 L331.637,82.379 L332.951,83.912 L334.232,85.474 L335.480,87.066 L336.697,88.689 L337.878,90.337 L339.023,92.011 L340.130,93.709 L341.200,95.431 L342.233,97.175 L343.227,98.943 L344.183,100.731 L345.096,102.533 L345.968,104.352 L346.800,106.187 L347.591,108.039 L348.342,109.906 L349.051,111.787 L349.720,113.682 L350.347,115.591 L350.932,117.512 L351.476,119.445 L351.978,121.390" fill="none" stroke="#000" stroke-width="1"/>
  <path d="M173.142,171.854 L154.101,161.574" fill="none" stroke="#000" stroke-width="1"/>
  <path d="M309.290,223.541 L307.713,224.460 L306.120,225.346 L304.512,226.200 L302.889,227.022 L301.253,227.810 L299.602,228.566 L297.939,229.289 L296.263,229.979 L294.575,230.636 L292.875,231.260 L291.164,231.850 L289.442,232.406 L287.710,232.929 L285.969,233.417 L284.219,233.872 L282.460,234.293 L280.692,234.679 L278.918,235.031 L277.136,235.349 L275.347,235.632 L273.552,235.880 L271.752,236.093 L269.947,236.271 L268.137,236.414 L266.323,236.522 L264.505,236.594 L262.684,236.631 L260.863,236.632" fill="none" stroke="#000" stroke-width="1"/>
  <path d="M290.009,388.797 L152.086,317.335" fill="none" stroke="#000" stroke-width="1"/>
  <path d="M154.101,161.574 L152.086,317.335" fill="none" stroke="#000" stroke-width="1"/>
  <path d="M355.004,120.199 L357.277,268.843" fill="none" stroke="#000" stroke-width="1"/>
  <path d="M354.676,142.539 L354.674,144.961 L354.609,147.379 L354.480,149.792 L354.290,152.198 L354.037,154.597 L353.723,156.987 L353.347,159.367 L352.909,161.735 L352.410,164.092 L351.851,166.434 L351.230,168.762 L350.550,171.074 L349.809,173.368 L349.009,175.644 L348.149,177.901 L347.229,180.137 L346.251,182.351 L345.214,184.541 L344.115,186.713 L342.961,188.854 L341.751,190.964 L340.487,193.041 L339.168,195.085 L337.796,197.094 L336.374,199.064 L334.905,200.992 L333.388,202.878 L331.823,204.723 L330.212,206.525 L328.555,208.284 L326.854,209.999 L325.110,211.668 L323.322,213.292 L321.493,214.869 L319.623,216.398 L317.713,217.879 L315.764,219.310 L313.776,220.692 L311.751,222.023 L309.690,223.301" fill="none" stroke="#000" stroke-width="1"/>
  <path d="M164.903,308.811 L289.416,234.624" fill="none" stroke="#000" stroke-width="1"/>
  <path d="M289.416,234.624 L289.551,269.587" fill="none" stroke="#000" stroke-width="1"/>
  <path d="M29.930,238.594 L164.903,308.811" fill="none" stroke="#000" stroke-width="1"/>
  <path d="M164.903,308.811 L163.166,461.317" fill="none" stroke="#000" stroke-width="1"/>
  <path d="M227.011,197.946 L358.210,268.829" fill="none" stroke="#000" stroke-width="1"/>
  <path d="M358.210,268.829 L358.505,349.119" fill="none" stroke="#000" stroke-width="1"/>
  <path d="M358.210,268.829 L486.400,193.939" fill="none" stroke="#000" stroke-width="1"/>
  <path d="M351.978,121.390 L352.217,122.382 L352.445,123.377 L352.662,124.374 L352.868,125.374 L353.063,126.377 L353.248,127.381 L353.421,128.388 L353.583,129.397 L353.734,130.407 L353.874,131.420 L354.003,132.435 L354.121,133.451 L354.228,134.469 L354.324,135.488 L354.408,136.509 L354.481,137.531 L354.543,138.555 L354.594,139.580 L354.633,140.606 L354.661,141.632" fill="none" stroke="#000" stroke-width="1"/>
  <path d="M260.863,236.632 L259.045,236.597 L257.231,236.527 L255.420,236.422 L253.613,236.281 L251.809,236.106 L250.011,235.895 L248.218,235.649 L246.431,235.369 L244.650,235.054 L242.876,234.705 L241.109,234.321 L239.350,233.903 L237.599,233.450 L235.857,232.964 L234.124,232.444 L232.401,231.889 L230.689,231.301 L228.987,230.680 L227.296,230.025 L225.618,229.336 L223.952,228.615 L222.298,227.860 L220.658,227.072 L219.032,226.251 L217.418,225.396 L215.816,224.507 L214.232,223.586 L212.669,222.637 L211.128,221.658 L209.607,220.649 L208.106,219.612 L206.627,218.545 L205.170,217.451 L203.735,216.328 L202.322,215.177 L200.932,213.999 L199.566,212.794 L198.223,211.562 L196.904,210.304 L195.610,209.020 L194.340,207.710 L193.096,206.374 L191.878,205.014 L190.685,203.629 L189.519,202.219 L188.381,200.787 L187.272,199.333 L186.192,197.858 L185.142,196.363 L184.121,194.847 L183.130,193.311 L182.169,191.756 L181.239,190.183 L180.340,188.590 L179.471,186.980 L178.635,185.352 L177.831,183.709 L177.060,182.053 L176.323,180.384 L175.620,178.701 L174.950,177.007 L174.313,175.300 L173.711,173.582 L173.142,171.854" fill="none" stroke="#000" stroke-width="1"/>
  <path d="M352.228,121.885 L227.011,197.946" fill="none" stroke="#000" stroke-width="1"/>
  <path d="M286.864,233.247 L173.142,171.854" fill="none" stroke="#000" stroke-width="1"/>
  <path d="M269.326,246.594 L227.011,197.946" fill="none" stroke="#000" stroke-width="1"/>
</svg>